<mxfile host="app.diagrams.net" modified="2024-04-11T22:31:10.547Z" agent="Mozilla/5.0 (Macintosh; Intel Mac OS X 10_15_7) AppleWebKit/537.36 (KHTML, like Gecko) Chrome/123.0.0.0 Safari/537.36" etag="2E_1u5j5oBNlTXmD_2ho" version="24.2.3" type="github">
  <diagram name="Page-1" id="6W1zkunl0plCZySkUk_s">
    <mxGraphModel dx="912" dy="571" grid="1" gridSize="10" guides="1" tooltips="1" connect="1" arrows="1" fold="1" page="1" pageScale="1" pageWidth="827" pageHeight="1169" math="0" shadow="0">
      <root>
        <mxCell id="0" />
        <mxCell id="1" parent="0" />
        <mxCell id="KdnYnx5ITTp7XrVTay8r-3" value="" style="edgeStyle=orthogonalEdgeStyle;rounded=0;orthogonalLoop=1;jettySize=auto;html=1;" edge="1" parent="1" source="KdnYnx5ITTp7XrVTay8r-1" target="KdnYnx5ITTp7XrVTay8r-2">
          <mxGeometry relative="1" as="geometry" />
        </mxCell>
        <mxCell id="KdnYnx5ITTp7XrVTay8r-1" value="Start" style="ellipse;whiteSpace=wrap;html=1;" vertex="1" parent="1">
          <mxGeometry x="340" y="20" width="100" height="50" as="geometry" />
        </mxCell>
        <mxCell id="KdnYnx5ITTp7XrVTay8r-6" value="" style="edgeStyle=orthogonalEdgeStyle;rounded=0;orthogonalLoop=1;jettySize=auto;html=1;" edge="1" parent="1" source="KdnYnx5ITTp7XrVTay8r-2" target="KdnYnx5ITTp7XrVTay8r-5">
          <mxGeometry relative="1" as="geometry" />
        </mxCell>
        <mxCell id="KdnYnx5ITTp7XrVTay8r-2" value="sum of squares = 0&lt;div&gt;sum = 0&lt;/div&gt;&lt;div&gt;i = 0&lt;/div&gt;" style="rounded=0;whiteSpace=wrap;html=1;" vertex="1" parent="1">
          <mxGeometry x="330" y="90" width="120" height="60" as="geometry" />
        </mxCell>
        <mxCell id="KdnYnx5ITTp7XrVTay8r-4" value="Initialise is a process shown in rectangle" style="text;html=1;align=center;verticalAlign=middle;whiteSpace=wrap;rounded=0;" vertex="1" parent="1">
          <mxGeometry x="510" y="70" width="170" height="80" as="geometry" />
        </mxCell>
        <mxCell id="KdnYnx5ITTp7XrVTay8r-8" value="Yes" style="edgeStyle=orthogonalEdgeStyle;rounded=0;orthogonalLoop=1;jettySize=auto;html=1;" edge="1" parent="1" source="KdnYnx5ITTp7XrVTay8r-5" target="KdnYnx5ITTp7XrVTay8r-7">
          <mxGeometry relative="1" as="geometry" />
        </mxCell>
        <mxCell id="KdnYnx5ITTp7XrVTay8r-15" value="" style="edgeStyle=orthogonalEdgeStyle;rounded=0;orthogonalLoop=1;jettySize=auto;html=1;" edge="1" parent="1" source="KdnYnx5ITTp7XrVTay8r-5" target="KdnYnx5ITTp7XrVTay8r-14">
          <mxGeometry relative="1" as="geometry" />
        </mxCell>
        <mxCell id="KdnYnx5ITTp7XrVTay8r-16" value="No" style="edgeLabel;html=1;align=center;verticalAlign=middle;resizable=0;points=[];" vertex="1" connectable="0" parent="KdnYnx5ITTp7XrVTay8r-15">
          <mxGeometry x="-0.4409" y="-1" relative="1" as="geometry">
            <mxPoint as="offset" />
          </mxGeometry>
        </mxCell>
        <mxCell id="KdnYnx5ITTp7XrVTay8r-5" value="is i &amp;lt;= 100?" style="rhombus;whiteSpace=wrap;html=1;rounded=0;" vertex="1" parent="1">
          <mxGeometry x="335" y="180" width="110" height="110" as="geometry" />
        </mxCell>
        <mxCell id="KdnYnx5ITTp7XrVTay8r-10" style="edgeStyle=orthogonalEdgeStyle;rounded=0;orthogonalLoop=1;jettySize=auto;html=1;entryX=0;entryY=0.5;entryDx=0;entryDy=0;" edge="1" parent="1" source="KdnYnx5ITTp7XrVTay8r-7" target="KdnYnx5ITTp7XrVTay8r-5">
          <mxGeometry relative="1" as="geometry">
            <mxPoint x="200" y="110" as="targetPoint" />
            <Array as="points">
              <mxPoint x="201" y="380" />
              <mxPoint x="201" y="235" />
            </Array>
          </mxGeometry>
        </mxCell>
        <mxCell id="KdnYnx5ITTp7XrVTay8r-7" value="sum of squares =&amp;nbsp;&lt;span style=&quot;background-color: initial;&quot;&gt;sum of squares + i * i&lt;/span&gt;&lt;div&gt;&lt;span style=&quot;background-color: initial;&quot;&gt;sum = sum + i&lt;/span&gt;&lt;/div&gt;&lt;div&gt;&lt;span style=&quot;background-color: initial;&quot;&gt;i = i + 1&lt;/span&gt;&lt;/div&gt;" style="whiteSpace=wrap;html=1;rounded=0;" vertex="1" parent="1">
          <mxGeometry x="260" y="350" width="250" height="60" as="geometry" />
        </mxCell>
        <mxCell id="KdnYnx5ITTp7XrVTay8r-18" value="" style="edgeStyle=orthogonalEdgeStyle;rounded=0;orthogonalLoop=1;jettySize=auto;html=1;" edge="1" parent="1" source="KdnYnx5ITTp7XrVTay8r-14" target="KdnYnx5ITTp7XrVTay8r-17">
          <mxGeometry relative="1" as="geometry" />
        </mxCell>
        <mxCell id="KdnYnx5ITTp7XrVTay8r-14" value="square of the sum = sum * sum" style="whiteSpace=wrap;html=1;rounded=0;" vertex="1" parent="1">
          <mxGeometry x="530" y="440" width="250" height="80" as="geometry" />
        </mxCell>
        <mxCell id="KdnYnx5ITTp7XrVTay8r-20" value="" style="edgeStyle=orthogonalEdgeStyle;rounded=0;orthogonalLoop=1;jettySize=auto;html=1;" edge="1" parent="1" source="KdnYnx5ITTp7XrVTay8r-17" target="KdnYnx5ITTp7XrVTay8r-19">
          <mxGeometry relative="1" as="geometry" />
        </mxCell>
        <mxCell id="KdnYnx5ITTp7XrVTay8r-17" value="diff = square of sum - sum of the square" style="whiteSpace=wrap;html=1;rounded=0;" vertex="1" parent="1">
          <mxGeometry x="285" y="580" width="200" height="70" as="geometry" />
        </mxCell>
        <mxCell id="KdnYnx5ITTp7XrVTay8r-22" value="" style="edgeStyle=orthogonalEdgeStyle;rounded=0;orthogonalLoop=1;jettySize=auto;html=1;" edge="1" parent="1" source="KdnYnx5ITTp7XrVTay8r-19" target="KdnYnx5ITTp7XrVTay8r-21">
          <mxGeometry relative="1" as="geometry" />
        </mxCell>
        <mxCell id="KdnYnx5ITTp7XrVTay8r-19" value="Display diff" style="shape=parallelogram;perimeter=parallelogramPerimeter;whiteSpace=wrap;html=1;fixedSize=1;rounded=0;" vertex="1" parent="1">
          <mxGeometry x="325" y="735" width="120" height="60" as="geometry" />
        </mxCell>
        <mxCell id="KdnYnx5ITTp7XrVTay8r-21" value="Stop" style="ellipse;whiteSpace=wrap;html=1;rounded=0;" vertex="1" parent="1">
          <mxGeometry x="327.5" y="865" width="115" height="55" as="geometry" />
        </mxCell>
      </root>
    </mxGraphModel>
  </diagram>
</mxfile>
